<?xml version="1.0" standalone="no"?>
<!DOCTYPE svg PUBLIC "-//W3C//DTD SVG 20010904//EN"
 "http://www.w3.org/TR/2001/REC-SVG-20010904/DTD/svg10.dtd">
<svg version="1.0" xmlns="http://www.w3.org/2000/svg"
 width="200.000000pt" height="128.000000pt" viewBox="0 0 200.000000 128.000000"
 preserveAspectRatio="xMidYMid meet">
<metadata>
Created by potrace 1.10, written by Peter Selinger 2001-2011
</metadata>
<g transform="translate(0.000000,128.000000) scale(0.100000,-0.100000)"
fill="#000000" stroke="none">
<path d="M539 1071 c-245 -54 -452 -100 -460 -103 -11 -4 -13 -30 -11 -127 l3
-121 40 0 39 0 0 80 c0 66 3 80 16 80 9 0 194 41 413 90 218 50 406 90 416 90
10 0 183 -36 384 -80 201 -43 389 -83 416 -87 l50 -9 0 -77 0 -77 43 0 42 0 0
118 0 117 -458 99 c-251 55 -464 101 -472 102 -8 2 -216 -41 -461 -95z m701
24 c140 -31 284 -63 319 -71 93 -23 103 -25 136 -30 17 -3 71 -15 120 -27 l90
-22 3 -97 c3 -93 2 -98 -18 -98 -18 0 -20 6 -20 63 0 34 -6 69 -13 79 -9 11
-52 24 -127 38 -159 29 -156 29 -242 51 -43 11 -90 21 -105 23 -16 2 -48 9
-73 14 -25 6 -56 13 -70 15 -14 3 -43 10 -65 15 -22 6 -56 14 -75 17 -19 3
-51 10 -70 15 -27 7 -56 5 -120 -11 -47 -11 -206 -47 -355 -80 -346 -77 -386
-87 -408 -107 -10 -8 -17 -23 -16 -31 1 -9 1 -35 0 -58 -1 -36 -4 -43 -21 -43
-19 0 -20 7 -20 99 0 94 1 99 22 105 28 8 193 46 228 52 14 3 140 30 280 61
140 31 264 57 275 59 11 1 20 3 20 4 0 1 11 4 24 6 14 2 27 7 30 9 7 7 -2 9
271 -50z"/>
<path d="M819 955 c0 0 -31 -139 -68 -310 l-67 -310 175 -3 c197 -3 258 6 323
47 54 35 81 86 81 157 0 55 -30 114 -59 114 -24 0 -16 19 16 35 36 18 70 81
70 128 0 44 -36 98 -80 119 -31 15 -168 23 -391 23z m201 -45 c0 -5 -5 -10
-11 -12 -12 -4 -49 -138 -49 -180 0 -39 26 -61 63 -54 61 12 97 67 97 149 0
59 -15 81 -66 97 -23 7 -15 8 39 9 114 2 167 -35 167 -116 0 -36 -6 -48 -45
-87 -25 -26 -45 -50 -45 -55 0 -4 11 -19 24 -32 51 -53 59 -104 25 -170 -16
-33 -32 -46 -87 -72 -66 -31 -68 -31 -233 -31 -92 -1 -170 1 -173 4 -4 4 81
425 109 537 4 19 13 22 68 25 73 4 117 -1 117 -12z m63 -52 c45 -53 -10 -168
-81 -168 -26 0 -27 -9 5 133 13 62 17 67 36 62 12 -4 30 -16 40 -27z"/>
<path d="M948 633 c-8 -10 -25 -67 -37 -128 l-23 -109 23 -19 c44 -35 109 -1
145 76 39 84 29 153 -25 182 -39 20 -64 19 -83 -2z m86 -35 c21 -30 20 -84 -3
-133 -21 -46 -35 -60 -74 -69 -39 -9 -47 -1 -37 37 5 17 16 67 25 110 16 74
18 77 45 77 18 0 35 -8 44 -22z"/>
<path d="M68 388 c-2 -57 -3 -104 -3 -105 1 -2 241 -49 365 -72 30 -5 163 -30
295 -55 132 -25 252 -46 267 -46 14 0 228 38 474 85 247 47 452 85 456 85 5 0
8 48 8 106 l0 105 -42 -3 -42 -3 3 -65 2 -66 -184 -33 c-101 -18 -293 -53
-428 -79 l-244 -47 -135 27 c-74 15 -254 50 -400 78 -146 29 -275 54 -287 57
-21 5 -23 11 -23 69 l0 64 -39 0 -40 0 -3 -102z m62 27 c0 -53 2 -56 33 -70
26 -12 238 -57 368 -79 14 -2 73 -13 130 -25 57 -11 115 -22 129 -25 14 -2 63
-13 110 -23 56 -13 99 -17 125 -12 22 4 54 9 70 12 17 3 66 13 110 22 44 10
94 19 110 22 34 6 432 79 485 89 56 11 70 29 70 91 0 47 2 53 20 53 20 0 21
-5 18 -82 -3 -82 -3 -82 -33 -90 -27 -7 -125 -25 -430 -83 -49 -9 -99 -19
-110 -22 -26 -5 -45 -9 -206 -39 l-135 -25 -165 30 c-90 17 -186 35 -214 41
-27 5 -86 16 -130 25 -44 8 -125 24 -180 34 -55 11 -118 22 -140 26 -78 12
-75 8 -75 101 0 77 2 84 20 84 18 0 20 -7 20 -55z"/>
</g>
</svg>
